<mxfile host="app.diagrams.net" modified="2021-10-18T08:45:40.057Z" agent="5.0 (Windows NT 10.0; Win64; x64) AppleWebKit/537.36 (KHTML, like Gecko) Chrome/94.0.4606.81 Safari/537.36 Edg/94.0.992.50" etag="X9NSoVkhNSAO1TjM65kO" version="15.5.4" type="github">
  <diagram name="Page-1" id="52a04d89-c75d-2922-d76d-85b35f80e030">
    <mxGraphModel dx="1662" dy="762" grid="1" gridSize="10" guides="1" tooltips="1" connect="1" arrows="1" fold="1" page="1" pageScale="1" pageWidth="1100" pageHeight="850" background="none" math="0" shadow="0">
      <root>
        <mxCell id="0" />
        <mxCell id="1" parent="0" />
        <mxCell id="yaiKkiEzi8uJ0ouDUMKI-5" style="edgeStyle=orthogonalEdgeStyle;rounded=0;orthogonalLoop=1;jettySize=auto;html=1;exitX=0.5;exitY=1;exitDx=0;exitDy=0;" edge="1" parent="1" source="yaiKkiEzi8uJ0ouDUMKI-1">
          <mxGeometry relative="1" as="geometry">
            <mxPoint x="240" y="350" as="targetPoint" />
          </mxGeometry>
        </mxCell>
        <mxCell id="yaiKkiEzi8uJ0ouDUMKI-18" style="edgeStyle=orthogonalEdgeStyle;rounded=0;orthogonalLoop=1;jettySize=auto;html=1;exitX=1;exitY=0.5;exitDx=0;exitDy=0;" edge="1" parent="1" source="yaiKkiEzi8uJ0ouDUMKI-1" target="yaiKkiEzi8uJ0ouDUMKI-2">
          <mxGeometry relative="1" as="geometry" />
        </mxCell>
        <mxCell id="yaiKkiEzi8uJ0ouDUMKI-19" value="登录设备" style="edgeLabel;html=1;align=center;verticalAlign=middle;resizable=0;points=[];" vertex="1" connectable="0" parent="yaiKkiEzi8uJ0ouDUMKI-18">
          <mxGeometry x="0.1077" y="1" relative="1" as="geometry">
            <mxPoint as="offset" />
          </mxGeometry>
        </mxCell>
        <mxCell id="yaiKkiEzi8uJ0ouDUMKI-1" value="用户" style="rounded=1;whiteSpace=wrap;html=1;" vertex="1" parent="1">
          <mxGeometry x="180" y="180" width="120" height="60" as="geometry" />
        </mxCell>
        <mxCell id="yaiKkiEzi8uJ0ouDUMKI-23" style="edgeStyle=orthogonalEdgeStyle;rounded=0;orthogonalLoop=1;jettySize=auto;html=1;exitX=0;exitY=0.25;exitDx=0;exitDy=0;entryX=1;entryY=0.25;entryDx=0;entryDy=0;" edge="1" parent="1" source="yaiKkiEzi8uJ0ouDUMKI-2" target="yaiKkiEzi8uJ0ouDUMKI-1">
          <mxGeometry relative="1" as="geometry" />
        </mxCell>
        <mxCell id="yaiKkiEzi8uJ0ouDUMKI-24" value="设备拍照" style="edgeLabel;html=1;align=center;verticalAlign=middle;resizable=0;points=[];" vertex="1" connectable="0" parent="yaiKkiEzi8uJ0ouDUMKI-23">
          <mxGeometry x="-0.1154" y="-3" relative="1" as="geometry">
            <mxPoint as="offset" />
          </mxGeometry>
        </mxCell>
        <mxCell id="yaiKkiEzi8uJ0ouDUMKI-32" style="edgeStyle=orthogonalEdgeStyle;rounded=0;orthogonalLoop=1;jettySize=auto;html=1;exitX=1;exitY=0.5;exitDx=0;exitDy=0;entryX=0;entryY=0.5;entryDx=0;entryDy=0;" edge="1" parent="1" source="yaiKkiEzi8uJ0ouDUMKI-2" target="yaiKkiEzi8uJ0ouDUMKI-16">
          <mxGeometry relative="1" as="geometry" />
        </mxCell>
        <mxCell id="yaiKkiEzi8uJ0ouDUMKI-2" value="设备" style="rounded=1;whiteSpace=wrap;html=1;" vertex="1" parent="1">
          <mxGeometry x="560" y="180" width="120" height="60" as="geometry" />
        </mxCell>
        <mxCell id="yaiKkiEzi8uJ0ouDUMKI-8" style="edgeStyle=orthogonalEdgeStyle;rounded=0;orthogonalLoop=1;jettySize=auto;html=1;exitX=0.5;exitY=1;exitDx=0;exitDy=0;startArrow=none;" edge="1" parent="1" source="yaiKkiEzi8uJ0ouDUMKI-10">
          <mxGeometry relative="1" as="geometry">
            <mxPoint x="240" y="520" as="targetPoint" />
          </mxGeometry>
        </mxCell>
        <mxCell id="yaiKkiEzi8uJ0ouDUMKI-6" value="后台" style="rounded=1;whiteSpace=wrap;html=1;" vertex="1" parent="1">
          <mxGeometry x="180" y="350" width="120" height="60" as="geometry" />
        </mxCell>
        <mxCell id="yaiKkiEzi8uJ0ouDUMKI-7" value="登录" style="text;html=1;align=center;verticalAlign=middle;resizable=0;points=[];autosize=1;strokeColor=none;fillColor=none;" vertex="1" parent="1">
          <mxGeometry x="230" y="280" width="40" height="20" as="geometry" />
        </mxCell>
        <mxCell id="yaiKkiEzi8uJ0ouDUMKI-9" value="文件" style="rounded=1;whiteSpace=wrap;html=1;" vertex="1" parent="1">
          <mxGeometry x="180" y="520" width="120" height="60" as="geometry" />
        </mxCell>
        <mxCell id="yaiKkiEzi8uJ0ouDUMKI-10" value="添加/申请" style="text;html=1;strokeColor=none;fillColor=none;align=center;verticalAlign=middle;whiteSpace=wrap;rounded=0;" vertex="1" parent="1">
          <mxGeometry x="210" y="435" width="60" height="30" as="geometry" />
        </mxCell>
        <mxCell id="yaiKkiEzi8uJ0ouDUMKI-11" value="" style="edgeStyle=orthogonalEdgeStyle;rounded=0;orthogonalLoop=1;jettySize=auto;html=1;exitX=0.5;exitY=1;exitDx=0;exitDy=0;endArrow=none;" edge="1" parent="1" source="yaiKkiEzi8uJ0ouDUMKI-6" target="yaiKkiEzi8uJ0ouDUMKI-10">
          <mxGeometry relative="1" as="geometry">
            <mxPoint x="240" y="520" as="targetPoint" />
            <mxPoint x="240" y="410" as="sourcePoint" />
          </mxGeometry>
        </mxCell>
        <mxCell id="yaiKkiEzi8uJ0ouDUMKI-14" value="" style="endArrow=classic;html=1;rounded=0;entryX=0.5;entryY=1;entryDx=0;entryDy=0;exitX=0.5;exitY=1;exitDx=0;exitDy=0;" edge="1" parent="1" source="yaiKkiEzi8uJ0ouDUMKI-2" target="yaiKkiEzi8uJ0ouDUMKI-9">
          <mxGeometry width="50" height="50" relative="1" as="geometry">
            <mxPoint x="560" y="520" as="sourcePoint" />
            <mxPoint x="610" y="470" as="targetPoint" />
            <Array as="points">
              <mxPoint x="620" y="600" />
              <mxPoint x="240" y="600" />
            </Array>
          </mxGeometry>
        </mxCell>
        <mxCell id="yaiKkiEzi8uJ0ouDUMKI-15" value="扫描文件二维码" style="edgeLabel;html=1;align=center;verticalAlign=middle;resizable=0;points=[];" vertex="1" connectable="0" parent="yaiKkiEzi8uJ0ouDUMKI-14">
          <mxGeometry x="-0.4789" y="2" relative="1" as="geometry">
            <mxPoint as="offset" />
          </mxGeometry>
        </mxCell>
        <mxCell id="yaiKkiEzi8uJ0ouDUMKI-29" style="edgeStyle=orthogonalEdgeStyle;rounded=0;orthogonalLoop=1;jettySize=auto;html=1;exitX=0.5;exitY=0;exitDx=0;exitDy=0;entryX=0;entryY=0.5;entryDx=0;entryDy=0;" edge="1" parent="1" source="yaiKkiEzi8uJ0ouDUMKI-16" target="yaiKkiEzi8uJ0ouDUMKI-1">
          <mxGeometry relative="1" as="geometry" />
        </mxCell>
        <mxCell id="yaiKkiEzi8uJ0ouDUMKI-30" value="取出文件" style="edgeLabel;html=1;align=center;verticalAlign=middle;resizable=0;points=[];" vertex="1" connectable="0" parent="yaiKkiEzi8uJ0ouDUMKI-29">
          <mxGeometry x="-0.1273" y="2" relative="1" as="geometry">
            <mxPoint as="offset" />
          </mxGeometry>
        </mxCell>
        <mxCell id="yaiKkiEzi8uJ0ouDUMKI-16" value="箱格" style="rounded=1;whiteSpace=wrap;html=1;" vertex="1" parent="1">
          <mxGeometry x="890" y="180" width="120" height="60" as="geometry" />
        </mxCell>
        <mxCell id="yaiKkiEzi8uJ0ouDUMKI-21" style="edgeStyle=orthogonalEdgeStyle;rounded=0;orthogonalLoop=1;jettySize=auto;html=1;exitX=0.75;exitY=1;exitDx=0;exitDy=0;entryX=1;entryY=0.5;entryDx=0;entryDy=0;" edge="1" parent="1" source="yaiKkiEzi8uJ0ouDUMKI-16" target="yaiKkiEzi8uJ0ouDUMKI-16">
          <mxGeometry relative="1" as="geometry" />
        </mxCell>
        <mxCell id="yaiKkiEzi8uJ0ouDUMKI-22" value="存入文件" style="edgeLabel;html=1;align=center;verticalAlign=middle;resizable=0;points=[];" vertex="1" connectable="0" parent="yaiKkiEzi8uJ0ouDUMKI-21">
          <mxGeometry x="-0.1412" y="-4" relative="1" as="geometry">
            <mxPoint x="-13" as="offset" />
          </mxGeometry>
        </mxCell>
        <mxCell id="yaiKkiEzi8uJ0ouDUMKI-33" value="确认箱格" style="text;html=1;align=center;verticalAlign=middle;resizable=0;points=[];autosize=1;strokeColor=none;fillColor=none;" vertex="1" parent="1">
          <mxGeometry x="760" y="180" width="60" height="20" as="geometry" />
        </mxCell>
        <mxCell id="yaiKkiEzi8uJ0ouDUMKI-37" style="edgeStyle=orthogonalEdgeStyle;rounded=0;orthogonalLoop=1;jettySize=auto;html=1;exitX=1;exitY=0.25;exitDx=0;exitDy=0;entryX=0.675;entryY=1.017;entryDx=0;entryDy=0;entryPerimeter=0;" edge="1" parent="1" source="yaiKkiEzi8uJ0ouDUMKI-6" target="yaiKkiEzi8uJ0ouDUMKI-6">
          <mxGeometry relative="1" as="geometry" />
        </mxCell>
        <mxCell id="yaiKkiEzi8uJ0ouDUMKI-38" value="文件调阅申请&amp;nbsp; ，&amp;nbsp; &amp;nbsp;同意/拒绝" style="text;html=1;strokeColor=none;fillColor=none;align=center;verticalAlign=middle;whiteSpace=wrap;rounded=0;" vertex="1" parent="1">
          <mxGeometry x="320" y="380" width="60" height="30" as="geometry" />
        </mxCell>
      </root>
    </mxGraphModel>
  </diagram>
</mxfile>
